# Blender 4.0.1
# www.blender.org
mtllib bush1.mtl
o Bush
v -0.470865 1.639507 -1.204380
v -0.295927 -0.006563 -1.897133
v 0.038107 2.102228 -0.386880
v 0.950288 -0.004440 -1.678065
v 0.655845 1.302472 -1.472505
v 0.464063 1.963305 -0.707903
v 1.489432 1.134997 -0.808710
v 1.904617 -0.005228 -0.367867
v 1.552110 1.289378 0.269010
v 1.775872 -0.004192 0.840000
v 0.629760 2.039115 0.293197
v 0.724020 1.570140 1.156327
v 1.140908 0.858143 1.410862
v 0.298777 -0.001065 1.993245
v -0.120503 1.620555 1.294380
v -0.727448 0.919965 1.632405
v -1.206420 -0.007912 1.468215
v -0.264818 2.125290 0.277230
v -1.266360 1.496933 0.762225
v -1.904760 -0.007035 0.575955
v -1.598047 1.168148 -0.572993
v -0.744405 1.981597 -0.308430
v -0.652080 0.916575 -1.646145
v -0.287152 1.982273 -0.493485
v 0.379155 1.232850 -1.416195
v 0.486855 1.914015 -0.562845
v 1.144260 1.415130 -0.691538
v 1.615695 0.686363 -0.328478
v 1.172910 1.571707 0.269062
v 0.691537 1.415130 1.144260
v 1.253250 0.608580 1.253250
v 0.462832 1.902120 0.588517
v 0.179085 -0.010057 1.818278
v -0.272243 1.651343 1.052670
v -0.296993 0.957540 1.558297
v 0.019658 2.086042 0.074310
v -1.263847 1.101698 0.879562
v -0.552832 1.923172 0.417105
v -1.626037 0.685612 -0.284078
v -1.072223 1.637542 -0.430755
v -0.754027 1.000087 -1.465590
v -1.432418 -0.007005 -1.333575
vn 0.1697 0.1903 -0.9670
vn 0.8065 0.0666 -0.5874
vn 0.5228 0.7054 -0.4786
vn 0.0957 0.9954 0.0091
vn 0.6217 0.7695 -0.1464
vn 0.9467 0.3065 -0.0990
vn 0.9714 0.2137 0.1034
vn 0.6006 0.7282 0.3301
vn 0.6846 0.5653 0.4601
vn 0.8394 0.3344 0.4285
vn 0.6139 -0.0686 0.7864
vn 0.1280 0.8772 0.4627
vn 0.1816 0.4236 0.8875
vn 0.0418 0.4045 0.9136
vn -0.3294 0.0029 0.9442
vn -0.3028 0.8359 0.4578
vn -0.7624 0.2497 0.5970
vn -0.8096 -0.5472 -0.2124
vn -0.5447 0.7145 -0.4391
vn -0.4431 0.0720 -0.8936
vn -0.1806 0.7925 -0.5825
vn -0.0435 0.5289 -0.8476
vn 0.0376 -0.3792 0.9245
vn -0.1659 -0.2769 0.9465
vn -0.5721 -0.4139 0.7081
vn -0.8075 -0.2582 0.5303
vn -0.7579 -0.3480 0.5518
vn -0.5793 -0.8016 0.1479
vn -0.6898 -0.5448 -0.4769
vn -0.5185 0.1280 -0.8455
vn -0.2484 -0.2975 -0.9218
vn -0.1299 -0.7716 -0.6227
vn 0.2424 -0.1387 -0.9602
vn 0.6888 -0.7008 -0.1858
vn 0.7687 -0.4595 0.4450
vn 0.3687 -0.7365 0.5671
vn 0.4371 -0.1789 0.8814
vn 0.0248 -0.9991 0.0344
vn -0.0175 -0.9978 0.0633
vn 0.0759 0.7637 -0.6410
vn 0.6331 0.2575 -0.7300
vn 0.2312 0.9665 -0.1115
vn 0.6108 0.7755 -0.1598
vn 0.1707 0.4269 0.8881
vn 0.0787 0.8974 0.4341
vn -0.3775 0.6468 0.6627
vn -0.7307 0.2659 0.6288
vn -0.4646 0.8696 0.1671
vn -0.6886 0.7251 -0.0075
vn -0.9179 0.3727 0.1362
vn -0.9706 0.0186 -0.2401
vn -0.1620 0.9809 -0.1080
vn -0.5723 0.5273 -0.6281
vn -0.6657 0.3371 -0.6658
vn -0.1132 0.9162 -0.3844
vn 0.0453 0.2783 -0.9594
vn -0.0667 -0.9745 0.2142
vn -0.4051 -0.6889 0.6010
vn -0.8583 -0.5017 0.1074
vn -0.3661 -0.9304 -0.0173
vn -0.4286 -0.9033 -0.0183
vn -0.9237 -0.3088 -0.2268
vn 0.8731 -0.4770 -0.1012
vn -0.5318 -0.7333 -0.4237
vn -0.2585 -0.3672 -0.8935
vn -0.0669 -0.5861 -0.8075
vn 0.0431 -0.9284 -0.3692
vn 0.0506 -0.9100 -0.4115
vn 0.4270 -0.5425 -0.7235
vn 0.4899 -0.3886 -0.7804
vn 0.4825 -0.7080 -0.5158
vn -0.0129 -0.7807 0.6248
vn 0.8557 -0.5107 -0.0837
vn 0.2852 -0.9582 0.0210
vn 0.4053 -0.9123 0.0590
vn 0.9666 -0.0921 0.2391
vn 0.7886 -0.3849 0.4796
vn -0.9203 -0.3789 -0.0978
vn 0.7569 -0.2753 -0.5927
vn 0.1197 -0.7266 0.6766
vt 0.781150 0.501632
vt 0.679411 0.698444
vt 0.661639 0.500936
vt 0.573144 0.676521
vt 0.526913 0.501499
vt 0.662532 0.854097
vt 0.735043 0.937500
vt 0.578125 1.000000
vt 0.435969 0.889197
vt 0.472335 0.703237
vt 0.403898 0.511480
vt 0.344255 0.759944
vt 0.364814 0.626546
vt 0.276108 0.500978
vt 0.232453 0.772230
vt 0.181900 0.641053
vt 0.144699 0.502594
vt 0.122887 0.936715
vt 0.086072 0.744829
vt 0.052809 0.501624
vt 0.528201 0.611614
vt 0.376141 0.594257
vt 0.930576 0.857431
vt 0.806131 0.776326
vt 0.947306 0.684087
vt 0.877050 0.500405
vt 0.805254 0.640020
vt 0.709319 0.708272
vt 0.819495 0.653532
vt 0.587060 0.725778
vt 0.475655 0.765675
vt 0.623643 0.851916
vt 0.337060 0.725778
vt 0.280502 0.506094
vt 0.214320 0.649720
vt 0.207973 0.791088
vt 0.351897 0.854588
vt 0.093005 0.675667
vt 0.007403 0.792770
vt 0.101077 0.861952
vt 0.971800 0.582896
vt 0.819712 0.893810
vt 0.939648 0.772259
vt 0.020840 0.857601
vt 0.000000 0.687657
vt 0.987694 0.502193
vt 0.919052 0.974074
vt 0.532648 0.965802
vt 0.015579 0.619888
vt 1.000000 0.875000
vt 0.946963 0.963786
s 0
usemtl leaves
f 2/1/1 5/2/1 4/3/1
f 4/3/2 7/4/2 8/5/2
f 6/6/3 7/4/3 5/2/3
f 3/7/4 18/8/4 11/9/4
f 11/9/5 9/10/5 7/4/5
f 7/4/6 9/10/6 8/5/6
f 9/10/7 10/11/7 8/5/7
f 9/10/8 11/9/8 12/12/8
f 9/10/9 12/12/9 13/13/9
f 9/10/10 13/13/10 10/11/10
f 10/11/11 13/13/11 14/14/11
f 12/12/12 11/9/12 15/15/12
f 12/12/13 14/14/13 13/13/13
f 15/15/14 16/16/14 14/14/14
f 14/14/15 16/16/15 17/17/15
f 18/18/16 19/19/16 15/15/16
f 19/19/17 20/20/17 17/17/17
f 28/21/18 10/11/18 31/22/18
f 22/23/19 1/24/19 21/25/19
f 42/26/20 23/27/20 2/1/20
f 3/7/21 6/6/21 22/23/21
f 23/27/22 1/24/22 5/2/22
f 2/1/23 25/28/23 41/29/23
f 4/3/24 25/28/24 2/1/24
f 4/3/25 27/30/25 25/28/25
f 28/21/26 27/30/26 4/3/26
f 8/5/27 28/21/27 4/3/27
f 27/30/28 29/31/28 26/32/28
f 31/22/29 30/33/29 29/31/29
f 33/34/30 31/22/30 10/11/30
f 35/35/31 30/33/31 31/22/31
f 30/33/32 34/36/32 32/37/32
f 33/34/33 17/17/33 35/35/33
f 37/38/34 40/39/34 38/40/34
f 42/26/35 41/29/35 39/41/35
f 41/29/36 24/42/36 40/43/36
f 2/1/37 41/29/37 42/26/37
f 14/14/38 33/34/38 10/11/38
f 17/17/39 33/34/39 14/14/39
f 1/24/40 6/6/40 5/2/40
f 4/3/41 5/2/41 7/4/41
f 6/6/42 3/7/42 11/9/42
f 6/6/43 11/9/43 7/4/43
f 14/14/44 12/12/44 15/15/44
f 11/9/45 18/18/45 15/15/45
f 15/15/46 19/19/46 16/16/46
f 16/16/47 19/19/47 17/17/47
f 18/18/48 22/44/48 19/19/48
f 19/19/49 22/44/49 21/45/49
f 20/20/50 19/19/50 21/45/50
f 20/46/51 21/25/51 42/26/51
f 18/47/52 3/7/52 22/23/52
f 21/25/53 1/24/53 23/27/53
f 42/26/54 21/25/54 23/27/54
f 1/24/55 22/23/55 6/6/55
f 2/1/56 23/27/56 5/2/56
f 26/32/57 36/48/57 24/42/57
f 25/28/58 27/30/58 26/32/58
f 27/30/59 28/21/59 29/31/59
f 26/32/60 32/37/60 36/48/60
f 29/31/61 32/37/61 26/32/61
f 28/21/62 31/22/62 29/31/62
f 37/38/63 20/20/63 39/49/63
f 29/31/64 30/33/64 32/37/64
f 31/22/65 33/34/65 35/35/65
f 30/33/66 35/35/66 34/36/66
f 32/37/67 38/40/67 36/48/67
f 34/36/68 38/40/68 32/37/68
f 35/35/69 37/38/69 34/36/69
f 17/17/70 37/38/70 35/35/70
f 37/38/71 38/40/71 34/36/71
f 24/42/72 25/28/72 26/32/72
f 37/38/73 39/49/73 40/39/73
f 38/50/74 24/42/74 36/51/74
f 40/43/75 24/42/75 38/50/75
f 20/46/76 42/26/76 39/41/76
f 39/41/77 41/29/77 40/43/77
f 28/21/78 8/5/78 10/11/78
f 37/38/79 17/17/79 20/20/79
f 24/42/80 41/29/80 25/28/80
